<svg width="26" height="21" viewBox="0 0 26 21" fill="none" xmlns="http://www.w3.org/2000/svg">
<path d="M24.96 0.439996V4.44C23.36 4.49333 22.1867 5.02666 21.44 6.04C20.7467 7.05333 20.4 8.70667 20.4 11H25.12V21H14.32V13C14.32 8.78666 15.12 5.64 16.72 3.56C18.3733 1.48 21.12 0.439996 24.96 0.439996ZM11.04 0.439996V4.44C9.44 4.49333 8.26667 5.02666 7.52 6.04C6.77333 7.05333 6.4 8.70667 6.4 11H11.12V21H0.4V13C0.4 8.78666 1.2 5.64 2.8 3.56C4.45333 1.48 7.2 0.439996 11.04 0.439996Z" fill="#666666"/>
</svg>
